<svg xmlns="http://www.w3.org/2000/svg" viewBox="85 140 450 320"><g id="freepik--background-complete--inject-3"><path d="M470.57,432.5h65.1s-5.75-10.48-22.51-9c-16,1.46-16.82-5.15-25-6S473.28,423,470.57,432.5Z" style="fill:#57078d;"/><path d="M89.21,166H196.06s-9.45-17.19-36.95-14.69c-26.27,2.39-27.6-8.46-41-9.8S93.67,150.41,89.21,166Z" style="fill:#57078d;"/></g><g id="freepik--Airplane--inject-3"><path d="M149.81,228c-1.29.43-19.15,25-19.15,25l23.6,1.92,8.37-23.46Z" style="fill:#360269"/><path d="M129.55,276.71s47.71,34.83,58.31,44.68S405.2,411.5,434.73,407.71c0,0,2.31-21.34-33.7-50.18-35.85-28.7-164-71.2-163.72-71.81l-94.9-35.91-34.24-13.17,5.6,23Z" style="fill:#360269"/><path d="M144.25,265.2l-38.47,21.37-17.53-4.7,28-24.37S140,262.21,144.25,265.2Z" style="fill:#360269"/><polygon points="101.96 212.77 110.51 246.26 144.25 257.5 116.25 215.19 101.96 212.77" style="fill:#360269"/><path d="M204.66,273.36s-13.39,7.23-7.83,37.58L202,329.58,219.06,337s-12.4-28.63-7.27-44.87,8-13,8-13Z" style="fill:#455a64"/><path d="M244.6,288.17s-14.43,5.67-13.15,26.61,3.16,28.65,3.16,28.65l19.46,7.78s-3-35.57,0-42,11.05-13.9,11.05-13.9Z" style="fill:#455a64"/><path d="M279.57,301.18s-16.26,5.91-14.45,27.71,0,26.63,0,26.63S413.88,412,436.61,408.79c0,0-5.25-44.43-61.31-69.08C325.28,317.71,279.57,301.18,279.57,301.18Z" style="fill:#455a64"/><path d="M297.36,173.72,315.31,181s12.4,17.52,12,24.79-7.68,111.07-7.68,111.07l-59.86-23,9.83-21.8-13.67-6v-3l16.43-.43,8.79-23.08-13.68-4.7-.86-4.7L285.82,228l10.26-28.64Z" style="fill:#455a64"/><path d="M234.91,327.56c-2.47.22-39.77,35.33-39.77,35.33H173.27v2.57l9,6-18.11,17.1-20.69-1.71v3.85l11.64,5.55L121.1,426.58l-17.24-9s3,17.95,11.42,21.8,24.79,10.26,24.79,10.26l173.74-94.93S297.86,322.16,234.91,327.56Z" style="fill:#455a64"/><path d="M412.75,365.61s-1.06,6.8-31.26,10.22v6.11s30.62,1.25,38.41-7.5A89.76,89.76,0,0,0,412.75,365.61Z" style="fill:#fff"/><polygon points="405.39 370.01 412.76 381.15 416.95 377.94 409.88 368.57 405.39 370.01" style="fill:#455a64"/><polyline points="390.94 373.06 391.19 374.21 393.28 383.84 399.39 382.45 396.87 373.06" style="fill:#455a64"/><path d="M347.22,327.7a5.39,5.39,0,0,1-.91-.29l-2.57-1-9.42-3.62-31-12.13-30.92-12.29-9.34-3.8-2.53-1.05a5.39,5.39,0,0,1-.87-.41,5.39,5.39,0,0,1,.91.29l2.57.95,9.42,3.62,31,12.13,30.92,12.29,9.34,3.8,2.53,1.05A5.39,5.39,0,0,1,347.22,327.7Z" style="fill:#263238"/><path d="M326.87,199.17a1.36,1.36,0,0,1,0,.3c0,.23,0,.52,0,.88,0,.77-.08,1.9-.2,3.36-.21,2.92-.58,7.13-1.08,12.34-1,10.41-2.5,24.77-4.28,40.62s-3.49,30.2-4.83,40.57c-.66,5.19-1.24,9.38-1.68,12.27-.21,1.45-.41,2.57-.56,3.32-.07.35-.12.63-.17.86a.94.94,0,0,1-.08.29,1.36,1.36,0,0,1,0-.3c0-.23.07-.52.11-.87.11-.76.27-1.88.44-3.33.36-3,.87-7.14,1.49-12.29,1.2-10.43,2.84-24.76,4.66-40.59s3.31-30.16,4.46-40.6c.53-5.16,1-9.35,1.26-12.31.16-1.45.25-2.58.31-3.35q.06-.53.09-.87A1,1,0,0,1,326.87,199.17Z" style="fill:#263238"/><path d="M291.64,366.64a8.05,8.05,0,0,1,1-.45,29.14,29.14,0,0,0,2.79-1.43,65.65,65.65,0,0,0,9.25-6.86,13.29,13.29,0,0,0,2.45-2.85,7.1,7.1,0,0,0,1.05-3.82,11.05,11.05,0,0,0-3.87-7.81,33.16,33.16,0,0,0-8.43-5.39,102.59,102.59,0,0,0-9.94-4.33,104.44,104.44,0,0,0-37.3-6.47,113.21,113.21,0,0,0-11.52.72l-3.12.42-.81.09c-.18,0-.28,0-.28,0a1.23,1.23,0,0,1,.27-.07l.8-.15,3.11-.53a96.74,96.74,0,0,1,11.54-.92,102.19,102.19,0,0,1,37.52,6.33,101.41,101.41,0,0,1,10,4.36A33.7,33.7,0,0,1,304.7,343a11.48,11.48,0,0,1,4,8.21,7.52,7.52,0,0,1-1.15,4.07,13.76,13.76,0,0,1-2.56,2.92,60.82,60.82,0,0,1-9.42,6.75,24,24,0,0,1-2.86,1.33c-.34.14-.6.21-.78.27Z" style="fill:#263238"/><path d="M305.1,343.82c.09.15-36.85,22.07-82.5,49s-82.73,48.57-82.81,48.43,36.85-22.06,82.51-49S305,343.68,305.1,343.82Z" style="fill:#263238"/><path d="M215.93,408.75a5.55,5.55,0,0,0,1.06-2.12,6.91,6.91,0,0,0-1.76-6,10.07,10.07,0,0,0-3.7-2.41,26.54,26.54,0,0,0-5-1.33L194.7,394.8c-8.39-1.54-16-3-21.45-4l-6.49-1.28-1.76-.38a2.59,2.59,0,0,1-.61-.17,2.14,2.14,0,0,1,.63.05l1.78.27,6.52,1.09c5.51.95,13.1,2.3,21.49,3.84l11.81,2.18a27.35,27.35,0,0,1,5.1,1.41,10.27,10.27,0,0,1,3.83,2.6,7.09,7.09,0,0,1,1.67,6.3,4.58,4.58,0,0,1-.83,1.63C216.11,408.62,216,408.77,215.93,408.75Z" style="fill:#263238"/><path d="M367.37,373.06c-.07.15-13.33-4.87-29.62-11.22s-29.46-11.63-29.4-11.79,13.32,4.87,29.62,11.22S367.43,372.9,367.37,373.06Z" style="fill:#263238"/></g><g id="freepik--speech-bubble--inject-3"/></svg>