<svg width="600" height="90" xmlns="http://www.w3.org/2000/svg">

 <g>
  <title>Layer 1</title>
  <path stroke="#999999" id="svg_8" d="m17.2693,54.92715l530.43603,-1.12849" opacity="undefined" stroke-dasharray="5,5" stroke-width="2" fill="none"/>
  <path transform="rotate(-90 553.414 54.8565)" stroke="null" id="svg_9" d="m553.56659,13.52479c-0.62008,0 -1.17176,0.35461 -1.63724,0.99784c-0.46508,0.6427 -0.84977,1.56365 -1.16989,2.7138c-0.64014,2.29999 -1.03391,5.53096 -1.24931,9.40035c-0.21497,3.86194 -0.2512,8.35881 -0.16189,13.17263c-7.65954,4.37754 -23.1945,13.416 -24.44244,15.4341c-1.66149,2.68687 -1.12466,5.76616 -0.45513,7.81033l25.53902,-7.24147c0.53984,9.43687 1.30741,18.78359 1.97628,26.10747c-2.49756,1.01831 -7.1597,3.02899 -8.12202,4.27584c-1.32568,1.71764 -1.32567,7.26474 -1.32567,7.26474l10.45264,-1.18435c0.24618,2.39107 0.40014,3.78625 0.40014,3.78625l0.01527,0.1259l0.08248,0l0.19243,0l0.08247,0l0.01527,-0.1259c0,0 0.15367,-1.3952 0.40014,-3.78625l10.4557,1.18435c0,0 0.00001,-5.54709 -1.32567,-7.26474c-0.96268,-1.24734 -5.62822,-3.26258 -8.12508,-4.28054c0.66749,-7.3014 1.43371,-16.61236 1.97323,-26.01882l25.23968,7.15751c0.66953,-2.04416 1.20942,-5.12346 -0.45207,-7.81033c-1.2325,-1.99312 -16.39208,-10.83055 -24.14615,-15.26625c0.09265,-4.87621 0.05859,-9.43436 -0.15884,-13.34048l0,-0.00933c-0.2155,-3.86512 -0.6097,-7.09294 -1.2493,-9.39102c-0.32002,-1.14984 -0.70158,-2.07088 -1.16683,-2.7138c-0.46548,-0.64323 -1.01715,-0.99784 -1.63723,-0.99784l-0.00001,0z" stroke-dasharray="5,5" fill="#6908aa"/>
  <path stroke="null" id="svg_10" d="m18.47957,5.48361c-7.6618,0 -13.87337,5.79205 -13.87337,12.93639c0,7.14606 13.87337,31.25603 13.87337,31.25603s13.87337,-24.10997 13.87337,-31.25603c0,-7.14433 -6.20972,-12.93639 -13.87337,-12.93639zm0,19.11825c-3.66072,0 -6.62962,-2.76666 -6.62962,-6.18187s2.9689,-6.18187 6.62962,-6.18187s6.62962,2.76839 6.62962,6.18187s-2.9689,6.18187 -6.62962,6.18187z" stroke-dasharray="5,5" fill="#dd3333"/>
  <ellipse stroke="null" ry="3.9015" rx="3.9015" id="svg_12" cy="54.91853" cx="18.24069" stroke-dasharray="5,5" fill="#dd3333"/>
 </g>
</svg>